# xmcd
#
# Track frame offsets: 
#        150
#        11201
#        23832
#        37153
#        48866
#        60962
#        72057
#        85685
#        95704
#        108126
#        116726
#        131743
#
# Disc length: 2027 seconds
#
# Revision: 0
# Processed by: cddbd v1.5.2PL0 Copyright (c) Steve Scherf et al.
# Submitted via: ExactAudioCopyFreeDBPlugin 1.0
#
DISCID=9907e90c
DTITLE=Tião Carreiro e Pardinho - Encantos da Natureza
DYEAR=1968
DGENRE=Sertanejo
TTITLE0=Quando Cai a Chuva
TTITLE1=Nascimento de Jesus
TTITLE2=Meu Pedido
TTITLE3=Drama da Vida
TTITLE4=Quebra de Tabú
TTITLE5=Aquela Ingrata
TTITLE6=Encantos da Natureza
TTITLE7=Gaúcho Decidido
TTITLE8=Retrato do Boi Soberano
TTITLE9=Falsidade
TTITLE10=Caçador
TTITLE11=Pagode do Alá
EXTD=
EXTT0=
EXTT1=
EXTT2=
EXTT3=
EXTT4=
EXTT5=
EXTT6=
EXTT7=
EXTT8=
EXTT9=
EXTT10=
EXTT11=
PLAYORDER=
